<?xml version="1.0" encoding="UTF-8" standalone="no"?>
<svg
   xmlns:dc="http://purl.org/dc/elements/1.1/"
   xmlns:cc="http://creativecommons.org/ns#"
   xmlns:rdf="http://www.w3.org/1999/02/22-rdf-syntax-ns#"
   xmlns:svg="http://www.w3.org/2000/svg"
   xmlns="http://www.w3.org/2000/svg"
   xmlns:sodipodi="http://sodipodi.sourceforge.net/DTD/sodipodi-0.dtd"
   xmlns:inkscape="http://www.inkscape.org/namespaces/inkscape"
   version="1.0"
   width="550.000000pt"
   height="1000.000000pt"
   viewBox="0 0 550.000000 1000.000000"
   preserveAspectRatio="xMidYMid meet"
   id="svg2"
   inkscape:version="0.91 r13725"
   sodipodi:docname="logotip.svg">
  <defs
     id="defs46" />
  <sodipodi:namedview
     pagecolor="#ffffff"
     bordercolor="#666666"
     borderopacity="1"
     objecttolerance="10"
     gridtolerance="10"
     guidetolerance="10"
     inkscape:pageopacity="0"
     inkscape:pageshadow="2"
     inkscape:window-width="1366"
     inkscape:window-height="745"
     id="namedview44"
     showgrid="false"
     inkscape:zoom="0.3776"
     inkscape:cx="374.4236"
     inkscape:cy="386.28748"
     inkscape:window-x="-8"
     inkscape:window-y="-8"
     inkscape:window-maximized="1"
     inkscape:current-layer="svg2" />
  <metadata
     id="metadata4">
Created by potrace 1.13, written by Peter Selinger 2001-2015
<rdf:RDF>
  <cc:Work
     rdf:about="">
    <dc:format>image/svg+xml</dc:format>
    <dc:type
       rdf:resource="http://purl.org/dc/dcmitype/StillImage" />
    <dc:title></dc:title>
  </cc:Work>
</rdf:RDF>
</metadata>
  <g
     transform="translate(0.000000,1000.000000) scale(0.100000,-0.100000)"
     fill="#000000"
     stroke="none"
     id="g6"
     style="fill:#ffffff">
    <path
       d="M3536 9679 c-79 -74 -118 -150 -165 -329 -7 -25 -17 -59 -22 -76 -5 -17 -9 -39 -9 -50 0 -11 -4 -24 -9 -30 -6 -5 -14 -27 -20 -49 -5 -22 -14 -53 -20 -70 -5 -16 -22 -64 -36 -105 -14 -41 -30 -88 -35 -105 -26 -91 -70 -234 -89 -290 -24 -72 -60 -196 -77 -265 -9 -41 -28 -98 -41 -127 -12 -28 -23 -57 -23 -64 0 -11 -22 -83 -46 -149 -6 -19 -20 -62 -29 -95 -47 -168 -179 -576 -197 -608 -7 -14 -17 -18 -41 -14 -18 3 -61 10 -97 16 -36 5 -121 13 -190 16 -69 3 -189 10 -267 15 -173 11 -652 11 -823 0 -207 -13 -290 -46 -387 -155 -67 -75 -92 -144 -123 -340 -16 -99 -36 -217 -54 -310 -27 -136 -38 -216 -33 -229 3 -8 1 -18 -5 -24 -10 -10 -25 -107 -54 -337 -8 -66 -17 -133 -19 -150 -11 -81 -37 -351 -40 -415 -16 -289 -20 -417 -20 -660 0 -407 14 -543 86 -860 25 -108 68 -250 81 -265 4 -5 8 -16 8 -25 0 -8 7 -28 15 -44 8 -15 15 -33 15 -38 0 -17 113 -259 139 -297 10 -14 39 -58 65 -98 93 -141 353 -414 527 -554 69 -55 100 -90 125 -144 16 -35 19 -61 17 -195 -2 -171 -12 -227 -64 -350 -29 -67 -33 -73 -69 -98 -49 -33 -104 -45 -215 -47 -197 -4 -290 -22 -360 -69 -164 -111 -240 -290 -194 -456 39 -141 165 -274 333 -354 65 -31 173 -64 281 -87 242 -50 338 -61 560 -60 94 0 211 4 260 10 179 19 270 32 287 42 10 5 29 9 43 9 14 0 33 4 43 9 9 5 46 21 82 37 86 38 111 56 195 140 91 92 125 160 132 264 6 82 -8 166 -35 210 -33 53 -129 155 -171 181 -70 45 -125 57 -426 93 -11 1 -30 8 -42 14 -12 7 -28 12 -37 12 -15 0 -76 67 -76 83 0 5 -6 23 -14 40 -29 66 -40 137 -42 291 -2 136 1 167 18 220 23 72 33 83 118 146 117 87 134 100 225 172 135 108 180 149 293 271 92 99 131 147 167 206 6 9 20 30 32 47 12 17 27 42 33 55 5 13 26 51 45 84 19 33 34 66 35 74 0 8 6 22 13 30 13 16 83 179 110 256 39 112 57 165 72 220 9 33 21 71 25 85 5 14 12 45 15 70 4 25 10 61 15 80 77 318 105 1045 64 1668 -9 136 -15 260 -15 275 1 16 -5 81 -14 144 -8 63 -12 119 -10 123 7 11 -22 261 -36 315 -12 47 -16 88 -24 215 -3 52 -10 99 -15 104 -6 6 -10 18 -10 28 0 37 -106 178 -135 178 -5 0 -21 9 -34 19 -21 16 -23 22 -14 47 6 16 16 49 23 74 26 90 58 182 66 190 5 4 41 -8 81 -26 91 -44 175 -61 343 -69 221 -10 317 -24 400 -57 267 -107 276 -109 464 -114 89 -2 199 -11 246 -20 47 -9 101 -19 120 -21 19 -3 40 -9 46 -14 24 -19 153 -40 287 -46 l138 -6 39 38 c55 54 53 90 -11 195 -12 19 -43 76 -69 125 -90 170 -143 256 -188 306 l-45 50 55 57 c31 31 70 83 87 114 21 38 81 107 181 207 85 85 150 158 150 168 0 11 -17 36 -38 56 -35 34 -43 37 -95 37 -42 0 -88 12 -180 45 -196 71 -250 78 -537 70 -205 -6 -252 -4 -285 8 -22 8 -89 33 -150 55 -60 22 -131 50 -156 61 -82 37 -180 51 -335 50 -80 -1 -147 1 -151 4 -3 4 3 35 14 69 12 35 24 78 28 95 3 18 11 35 16 38 5 4 9 15 9 25 0 11 7 34 14 52 8 18 27 64 41 102 15 38 31 77 35 85 44 87 89 251 89 321 1 83 -54 162 -136 197 -58 24 -78 17 -147 -48z m4 -392 c0 -18 4 -49 9 -70 7 -29 5 -50 -10 -90 -10 -28 -19 -59 -20 -67 0 -8 -9 -33 -20 -55 -18 -38 -19 -38 -13 -8 3 17 1 34 -4 36 -13 9 -4 121 18 209 11 44 20 83 20 85 0 2 5 1 10 -2 6 -3 10 -21 10 -38z m-121 -661 c48 -11 112 -13 255 -9 201 5 262 -2 361 -47 22 -10 85 -33 140 -53 55 -19 122 -45 149 -56 47 -21 63 -22 335 -19 188 1 301 -2 331 -10 25 -6 59 -14 75 -18 17 -4 35 -10 40 -14 10 -7 94 -36 173 -60 23 -7 42 -16 42 -19 0 -4 -50 -56 -111 -116 -63 -63 -126 -136 -146 -170 -19 -33 -58 -83 -87 -111 -46 -46 -76 -103 -76 -146 0 -7 25 -34 55 -61 54 -47 97 -115 194 -302 22 -44 54 -102 70 -130 17 -27 30 -53 31 -57 1 -20 -276 4 -322 28 -52 27 -277 65 -383 65 -187 0 -296 20 -430 79 -102 46 -126 53 -210 71 -52 10 -137 19 -200 20 -124 1 -260 13 -320 27 -41 10 -205 90 -234 115 -20 17 -89 37 -125 37 -23 0 -26 4 -26 33 0 18 7 43 16 55 9 13 14 33 11 44 -3 12 1 34 9 49 7 15 14 39 14 52 0 13 11 46 25 73 14 27 46 114 71 194 25 80 51 163 58 185 8 22 28 87 45 145 47 153 47 153 79 146 15 -3 56 -12 91 -20z m-532 -1441 c-9 -181 -48 -323 -82 -295 -19 16 -27 71 -13 87 6 8 15 36 19 61 4 26 17 74 28 107 11 33 25 79 31 103 6 23 13 42 16 42 3 0 3 -47 1 -105z m-757 -20 c283 -10 381 -17 461 -32 47 -8 92 -19 99 -23 16 -10 0 -82 -38 -179 l-25 -64 -401 6 c-377 5 -602 18 -781 47 -33 6 -83 10 -110 10 -31 0 -60 7 -74 17 -13 9 -43 20 -66 24 -54 10 -152 56 -159 76 -15 37 56 83 128 83 18 0 46 4 62 9 16 6 97 12 179 15 124 4 147 3 133 -8 -10 -7 -55 -21 -100 -30 -91 -18 -120 -36 -101 -64 14 -23 73 -20 183 7 47 12 137 27 200 33 125 11 154 24 133 57 -7 10 -9 22 -5 26 4 4 43 4 87 0 44 -3 132 -8 195 -10z m-1033 -304 c34 -12 78 -21 98 -21 20 0 46 -6 58 -14 12 -7 49 -17 82 -20 33 -4 97 -11 141 -17 45 -5 142 -11 215 -14 213 -7 458 -17 529 -20 36 -2 136 -4 224 -4 146 -1 158 -2 153 -18 -3 -10 -17 -49 -31 -88 -14 -38 -50 -149 -80 -245 -30 -96 -73 -233 -95 -305 -22 -71 -43 -146 -46 -165 -19 -115 -28 -159 -42 -195 -35 -91 -44 -112 -63 -147 -11 -20 -20 -43 -20 -51 0 -8 -8 -25 -18 -37 -16 -20 -26 -22 -107 -21 -129 2 -174 5 -420 30 -576 57 -607 64 -718 163 -42 37 -50 49 -54 88 -5 56 19 105 70 139 60 40 48 101 -20 101 -26 0 -45 -10 -85 -47 -79 -74 -93 -129 -64 -241 12 -45 25 -63 82 -115 120 -110 145 -119 484 -166 264 -36 518 -56 711 -56 124 1 150 3 174 19 20 13 74 24 185 37 208 25 412 69 510 111 19 8 58 40 87 72 41 45 54 67 63 110 6 29 20 71 30 92 27 52 25 67 -11 109 -34 38 -86 58 -139 53 -30 -3 -35 -7 -38 -31 -4 -34 13 -57 43 -57 27 0 75 -43 75 -67 0 -28 -55 -117 -91 -147 -63 -53 -203 -108 -322 -125 -34 -6 -76 -13 -93 -16 -17 -4 -34 -3 -37 2 -4 6 2 34 13 64 10 30 34 104 54 164 36 114 49 153 74 220 8 22 22 69 32 105 43 159 52 190 80 265 34 94 106 326 115 372 8 40 24 53 74 60 67 9 143 54 168 98 26 47 29 41 37 -80 3 -49 14 -144 25 -210 45 -269 79 -868 79 -1375 0 -642 -31 -949 -138 -1352 -18 -70 -97 -296 -120 -343 -5 -11 -20 -47 -34 -80 -22 -55 -94 -190 -134 -254 -9 -14 -53 -74 -99 -132 -132 -171 -247 -271 -551 -484 -62 -43 -125 -92 -139 -109 -60 -72 -86 -179 -84 -354 2 -286 48 -445 156 -540 48 -42 88 -56 235 -78 52 -8 127 -20 165 -26 90 -14 206 -69 240 -114 25 -33 55 -103 55 -130 0 -9 -11 -14 -31 -14 -22 0 -47 -15 -98 -58 -133 -115 -229 -152 -436 -171 -71 -6 -197 -18 -280 -26 -112 -11 -166 -12 -215 -5 -36 6 -112 15 -170 19 -58 5 -125 15 -150 24 -97 33 -202 76 -228 93 -67 43 -175 139 -203 181 -45 65 -65 83 -94 83 -25 0 -25 1 -11 28 22 42 66 79 126 105 70 31 114 37 291 42 163 4 209 16 276 71 128 105 191 303 194 606 2 151 -7 202 -47 260 -16 22 -117 114 -226 205 -110 92 -221 194 -251 230 -223 275 -274 358 -367 593 -12 30 -28 70 -36 88 -8 18 -14 44 -14 57 0 13 -4 26 -9 29 -8 5 -28 84 -62 234 -5 23 -13 61 -19 85 -42 186 -65 528 -56 847 3 124 8 252 11 285 2 33 9 132 15 220 16 230 76 755 100 880 6 28 19 113 29 190 11 77 29 183 41 235 12 52 25 120 31 150 5 30 14 76 20 102 l11 47 36 -29 c21 -16 65 -38 99 -49z m1472 -721 c0 -41 -6 -93 -14 -115 -8 -22 -15 -47 -15 -56 0 -9 -7 -22 -15 -29 -8 -7 -15 -26 -15 -42 0 -17 -4 -27 -10 -23 -5 3 -10 45 -10 93 0 65 5 98 20 131 11 24 20 50 20 57 0 8 6 32 12 54 17 53 27 28 27 -70z m-1517 -5087 c79 -68 167 -123 194 -123 7 0 46 -13 87 -30 60 -24 110 -34 251 -50 210 -24 278 -25 456 -6 74 8 195 20 269 26 211 19 297 50 417 151 64 54 79 51 40 -8 -63 -95 -114 -127 -286 -176 -172 -50 -594 -63 -865 -28 -298 39 -414 62 -464 91 -25 15 -66 39 -91 53 -64 36 -138 103 -159 146 -10 20 -21 59 -25 86 l-6 50 50 -56 c27 -31 86 -88 132 -126z"
       id="path8"
       style="fill:#ffffff" />
    <path
       d="M3946 8521 c-15 -23 -106 -327 -102 -338 10 -25 34 -13 59 30 28 48 74 94 83 84 4 -4 -1 -33 -10 -65 -21 -74 -20 -79 5 -93 16 -8 28 -8 47 1 l26 12 -21 16 c-21 17 -21 17 -2 72 10 30 15 65 12 78 -6 26 -43 38 -71 23 -40 -21 -41 -10 -11 74 17 47 28 92 25 100 -6 16 -32 20 -40 6z"
       id="path10"
       style="fill:#ffffff" />
    <path
       d="M3725 8378 c-40 -31 -56 -77 -44 -122 11 -40 33 -56 76 -56 27 0 53 15 53 31 0 4 -17 9 -37 11 -36 3 -38 5 -41 41 -4 49 20 89 51 85 14 -2 22 -10 22 -23 0 -31 39 -27 43 4 8 51 -72 69 -123 29z"
       id="path12"
       style="fill:#ffffff" />
    <path
       d="M4222 8258 c-17 -17 -15 -45 4 -52 11 -4 18 1 21 14 3 13 14 20 29 20 19 0 24 -5 24 -24 0 -20 -6 -24 -45 -29 -55 -6 -87 -31 -83 -65 4 -36 30 -49 68 -35 26 10 32 9 40 -7 13 -23 49 -35 63 -21 8 8 6 15 -8 25 -19 13 -19 16 -2 68 21 69 21 81 -1 101 -22 20 -92 23 -110 5z"
       id="path14"
       style="fill:#ffffff" />
    <path
       d="M4400 8222 c0 -4 5 -13 10 -18 7 -7 3 -34 -12 -82 -15 -52 -18 -76 -11 -83 16 -16 30 -4 57 50 29 57 42 68 81 73 22 2 30 8 30 23 0 23 -40 34 -58 16 -16 -16 -24 -14 -30 9 -4 15 -14 20 -36 20 -17 0 -31 -4 -31 -8z"
       id="path16"
       style="fill:#ffffff" />
    <path
       d="M4574 8147 c-71 -65 -49 -167 36 -167 70 0 128 95 96 158 -27 53 -80 57 -132 9z"
       id="path18"
       style="fill:#ffffff" />
    <path
       d="M3672 8048 c-6 -7 -19 -40 -30 -73 l-19 -60 -39 3 c-48 3 -97 -25 -119 -68 -20 -39 -22 -84 -5 -105 16 -19 64 -19 80 0 18 22 28 18 32 -12 3 -29 32 -41 66 -28 16 6 16 8 -1 20 -16 11 -17 18 -7 53 16 62 46 151 68 208 15 38 18 54 9 63 -14 14 -22 14 -35 -1z"
       id="path20"
       style="fill:#ffffff" />
    <path
       d="M3971 7958 c-5 -13 -28 -87 -51 -165 -47 -152 -46 -173 6 -173 29 0 38 14 19 30 -18 15 -15 28 37 183 22 65 37 125 34 133 -8 22 -35 17 -45 -8z"
       id="path22"
       style="fill:#ffffff" />
    <path
       d="M4020 7790 c-13 -9 -13 -11 0 -19 12 -8 12 -17 -3 -64 -9 -29 -17 -63 -17 -73 0 -41 47 -58 85 -30 18 13 21 11 37 -15 10 -16 26 -29 37 -29 27 0 35 17 14 28 -15 9 -15 14 -1 73 9 35 18 70 20 78 7 31 -31 22 -48 -11 -26 -52 -64 -98 -80 -98 -18 0 -18 21 3 88 17 52 17 55 -2 68 -22 17 -25 17 -45 4z"
       id="path24"
       style="fill:#ffffff" />
    <path
       d="M4244 7729 c-3 -6 -1 -15 6 -19 9 -5 7 -24 -10 -79 -32 -107 -12 -124 44 -37 33 51 71 84 83 72 3 -3 -3 -35 -12 -71 -17 -60 -17 -67 -2 -82 11 -11 24 -13 44 -8 27 6 27 7 8 21 -18 13 -18 18 -6 62 23 79 24 92 11 107 -17 20 -59 19 -82 -2 -17 -15 -18 -15 -18 3 0 37 -49 61 -66 33z"
       id="path26"
       style="fill:#ffffff" />
    <path
       d="M4489 7649 c-23 -23 -21 -42 5 -47 11 -2 19 4 23 17 6 24 25 27 42 7 21 -25 2 -45 -46 -48 -36 -2 -50 -9 -66 -30 -19 -25 -19 -28 -3 -52 18 -28 54 -34 74 -14 10 10 16 7 28 -10 15 -22 58 -30 69 -13 3 6 -2 14 -12 20 -17 9 -17 13 0 75 18 70 14 97 -19 110 -32 12 -74 6 -95 -15z"
       id="path28"
       style="fill:#ffffff" />
    <path
       d="M1600 6089 c-30 -4 -122 -13 -205 -19 -172 -12 -224 -22 -242 -46 -13 -18 -3 -48 19 -56 13 -4 117 3 368 26 145 13 598 14 637 2 24 -8 56 24 51 51 -8 42 -48 48 -318 49 -140 1 -280 -2 -310 -7z"
       id="path30"
       style="fill:#ffffff" />
    <path
       d="M3142 5288 c-16 -16 -15 -38 4 -111 13 -53 14 -72 3 -139 -10 -61 -10 -99 0 -190 12 -107 11 -117 -9 -181 -12 -38 -20 -83 -18 -100 3 -28 7 -32 35 -35 38 -4 41 1 73 116 22 80 23 88 10 198 -10 93 -10 129 1 195 11 72 11 88 -5 147 -27 102 -58 136 -94 100z"
       id="path32"
       style="fill:#ffffff" />
    <path
       d="M2162 5097 c-6 -6 -14 -26 -18 -42 -4 -17 -15 -47 -26 -68 -10 -20 -27 -79 -38 -130 -10 -50 -30 -117 -44 -147 -13 -30 -34 -102 -46 -160 -12 -58 -32 -125 -45 -150 -25 -50 -109 -296 -119 -350 -4 -19 -23 -101 -42 -183 -40 -165 -41 -210 -7 -215 28 -4 38 16 58 114 9 44 20 93 25 109 5 17 19 75 31 130 21 97 66 233 127 385 17 41 38 113 46 159 9 47 28 109 42 138 14 30 31 90 39 134 8 45 25 104 38 132 35 75 41 116 21 139 -20 21 -28 22 -42 5z"
       id="path34"
       style="fill:#ffffff" />
    <path
       d="M1300 4965 c-7 -8 -10 -28 -7 -47 3 -18 17 -123 31 -233 42 -334 51 -365 96 -365 31 0 42 26 37 82 -10 100 -65 495 -72 519 -16 53 -59 75 -85 44z"
       id="path36"
       style="fill:#ffffff" />
    <path
       d="M2162 4368 c-6 -6 -12 -22 -12 -34 0 -32 -67 -221 -99 -279 -30 -54 -111 -289 -111 -322 0 -11 7 -26 15 -33 13 -10 19 -10 34 4 10 10 21 27 24 39 12 53 79 231 110 294 42 85 96 247 100 299 2 35 -1 39 -23 42 -14 2 -31 -3 -38 -10z"
       id="path38"
       style="fill:#ffffff" />
    <path
       d="M2568 3099 c-9 -5 -40 -42 -68 -82 -92 -127 -125 -149 -326 -221 -126 -44 -137 -46 -241 -46 -158 0 -214 13 -308 69 -44 27 -99 58 -122 69 -22 12 -62 40 -88 62 -52 45 -65 48 -89 21 -32 -35 17 -98 121 -157 26 -14 80 -45 118 -68 78 -47 117 -63 190 -77 190 -37 275 -36 352 3 60 31 112 48 159 53 62 6 155 60 242 141 100 93 108 106 115 193 2 29 -31 54 -55 40z"
       id="path40"
       style="fill:#ffffff" />
    <path
       d="M1702 1498 c-31 -31 -3 -68 93 -118 60 -31 61 -32 165 -25 112 8 130 15 130 49 0 39 -19 46 -119 46 -86 0 -99 3 -148 30 -55 31 -101 38 -121 18z"
       id="path42"
       style="fill:#ffffff" />
  </g>
</svg>
